# xmcd
#
# Track frame offsets:
#	150
#	679
#	14624
#	25989
#	44826
#	60322
#	72626
#	86579
#	109080
#	123750
#	132667
#	146096
#	161576
#	176939
#	194427
#	208702
#	221830
#	231580
#	242681
#	243322
#	244346
#	245685
#	246699
#	247937
#	248842
#
# Disc length: 3341 seconds
#
# Revision: 0
# Processed by: cddbd v1.5.1PL2 Copyright (c) Steve Scherf et al.
# Submitted via: dBpowerAMP V4.0
#
DISCID=870d0b19
DTITLE=Skip and Joy Sittig - I Picked These Just For You Mom
DYEAR=2005
DGENRE=Bluegrass
TTITLE0=Tuning Up
TTITLE1=Ghost Riders
TTITLE2=Back in the Sadle AGain
TTITLE3=Little Joe the Wrangler
TTITLE4=Texas Plains (Cowboy Sweetheart)
TTITLE5=Bottled Water
TTITLE6=Cattle Call
TTITLE7=Cowboy Song (The Lone Prarie
TTITLE8=Roundup Time in Texas
TTITLE9=Happy Trails
TTITLE10=Here's Hopin'
TTITLE11=Riding Down the Canyon
TTITLE12=Beulah Land
TTITLE13=I Know Who Holds Tomorrow
TTITLE14=Sweet Bye and Bye
TTITLE15=I'm Just an Old Chunk of Coal
TTITLE16=Joy's Song
TTITLE17=Panhandle Rag
TTITLE18=Outtake 1
TTITLE19=Outtake 2
TTITLE20=Outtake 3
TTITLE21=Outtake 4
TTITLE22=Outtake 5
TTITLE23=Outtake 6
TTITLE24=Outtake 7
EXTD=
EXTT0=
EXTT1=
EXTT2=
EXTT3=
EXTT4=
EXTT5=
EXTT6=
EXTT7=
EXTT8=
EXTT9=
EXTT10=
EXTT11=
EXTT12=
EXTT13=
EXTT14=
EXTT15=
EXTT16=
EXTT17=
EXTT18=
EXTT19=
EXTT20=
EXTT21=
EXTT22=
EXTT23=
EXTT24=
PLAYORDER=
